<svg width="21" height="21" viewBox="0 0 21 21" fill="none" xmlns="http://www.w3.org/2000/svg">
<g id="Discovery">
<path id="Fill 1" fill-rule="evenodd" clip-rule="evenodd" d="M9.21145 9.21189L8.16445 12.5589L11.5105 11.5109L12.5585 8.16389L9.21145 9.21189ZM7.02045 14.4519C6.82445 14.4519 6.63245 14.3749 6.48945 14.2329C6.29245 14.0349 6.22045 13.7439 6.30445 13.4789L7.89745 8.38989C7.97045 8.15389 8.15445 7.97089 8.38845 7.89789L13.4775 6.30489C13.7445 6.21989 14.0345 6.29289 14.2325 6.48989C14.4295 6.68789 14.5015 6.97889 14.4175 7.24389L12.8255 12.3329C12.7525 12.5679 12.5675 12.7519 12.3335 12.8249L7.24445 14.4179C7.17045 14.4409 7.09445 14.4519 7.02045 14.4519Z" fill="#FAFAFA"/>
<g id="Group 5">
<mask id="mask0_4_100" style="mask-type:luminance" maskUnits="userSpaceOnUse" x="0" y="0" width="21" height="21">
<path id="Clip 4" fill-rule="evenodd" clip-rule="evenodd" d="M0 0H20.7218V20.7217H0V0Z" fill="white"/>
</mask>
<g mask="url(#mask0_4_100)">
<path id="Fill 3" fill-rule="evenodd" clip-rule="evenodd" d="M10.3608 1.5C5.47476 1.5 1.49976 5.476 1.49976 10.361C1.49976 15.247 5.47476 19.222 10.3608 19.222C15.2468 19.222 19.2218 15.247 19.2218 10.361C19.2218 5.476 15.2468 1.5 10.3608 1.5ZM10.3608 20.722C4.64776 20.722 -0.000244141 16.074 -0.000244141 10.361C-0.000244141 4.648 4.64776 0 10.3608 0C16.0738 0 20.7218 4.648 20.7218 10.361C20.7218 16.074 16.0738 20.722 10.3608 20.722Z" fill="#FAFAFA"/>
</g>
</g>
</g>
</svg>
