<svg width="46" height="36" viewBox="0 0 46 36" fill="none" xmlns="http://www.w3.org/2000/svg">
<path fill-rule="evenodd" clip-rule="evenodd" d="M45.5216 26.9195C44.6342 28.0371 42.4603 28.8343 42.4603 28.8343L26.288 34.6333V30.3567L38.1897 26.1233C39.5403 25.6402 39.7477 24.9573 38.6499 24.5989C37.5541 24.2394 35.57 24.3424 34.2184 24.8275L26.288 27.6158V23.1775L26.7451 23.0229C26.7451 23.0229 29.0367 22.2134 32.259 21.857C35.4813 21.5026 39.4268 21.9054 42.5242 23.0775C46.0147 24.1786 46.4079 25.8019 45.5216 26.9195ZM27.8275 19.6373V8.70055C27.8275 7.41612 27.5902 6.23366 26.383 5.8989C25.4585 5.60329 24.8848 6.46026 24.8848 7.74367V35.1318L17.4859 32.7875V0.131836C20.6318 0.714827 25.215 2.09299 27.6789 2.92215C33.9449 5.06974 36.0694 7.74264 36.0694 13.7652C36.0694 19.6352 32.4396 21.8601 27.8275 19.6373ZM3.90967 29.9096C0.32628 28.9023 -0.270092 26.8031 1.36322 25.5939C2.87273 24.4773 5.43981 23.6368 5.43981 23.6368L16.0486 19.8711V24.1642L8.41444 26.8917C7.0659 27.3748 6.85851 28.0587 7.95427 28.4172C9.05105 28.7756 11.0362 28.6736 12.3868 28.1895L16.0486 26.8629V30.7038C15.8165 30.745 15.5575 30.7862 15.3181 30.8264C11.6553 31.4238 7.7541 31.1745 3.90967 29.9096ZM43.165 31.6102C43.6282 31.6102 44.0626 31.7894 44.3897 32.1201C44.7168 32.4455 44.8973 32.8802 44.8973 33.3417C44.8973 33.8052 44.7168 34.2378 44.3897 34.5633C44.0626 34.8918 43.6282 35.0711 43.165 35.0711C42.7017 35.0711 42.2683 34.8918 41.9402 34.5633C41.6132 34.2378 41.4336 33.8052 41.4336 33.3417C41.4336 32.3879 42.2095 31.6102 43.165 31.6102ZM41.7246 33.3417C41.7246 33.7259 41.8742 34.0874 42.1466 34.3573C42.4179 34.6312 42.7811 34.7796 43.165 34.7796C43.9605 34.7796 44.6053 34.1348 44.6053 33.3417C44.6053 32.9564 44.4568 32.5949 44.1833 32.324C43.912 32.05 43.5488 31.9027 43.165 31.9027C42.7811 31.9027 42.4179 32.05 42.1466 32.324C41.8742 32.5949 41.7246 32.9564 41.7246 33.3417ZM43.6881 32.4095C43.8779 32.4929 43.9739 32.6536 43.9739 32.8823C43.9739 32.9997 43.9491 33.0986 43.8986 33.1758C43.8624 33.2315 43.8109 33.2768 43.7531 33.3159C43.7985 33.3427 43.8387 33.3746 43.8686 33.4117C43.9099 33.4653 43.9336 33.5508 43.9367 33.6671L43.946 33.9133C43.9491 33.9792 43.9533 34.0297 43.9636 34.0606C43.9739 34.1059 43.9935 34.1348 44.0183 34.1441L44.0441 34.1564V34.1842V34.2265V34.2687H44.0018H43.6953H43.6705L43.6582 34.2471C43.6478 34.2265 43.6406 34.2028 43.6334 34.1719C43.6282 34.1441 43.6231 34.0957 43.62 34.0215L43.6045 33.7156C43.6004 33.6095 43.5643 33.5436 43.4962 33.5085C43.4538 33.489 43.3837 33.4797 43.2888 33.4797H42.7636V34.2265V34.2687H42.7202H42.4706H42.4283V34.2265V32.3858V32.3436H42.4706H43.3238C43.4704 32.3436 43.5931 32.3652 43.6881 32.4095L43.6881 32.4095ZM42.7636 33.1851H43.2981C43.4054 33.1851 43.491 33.1655 43.5519 33.1254C43.6076 33.0852 43.6344 33.0121 43.6344 32.906C43.6344 32.7906 43.5962 32.7154 43.5158 32.6752C43.4714 32.6536 43.4095 32.6413 43.3311 32.6413H42.7636V33.1851Z" fill="white"/>
</svg>
