<svg width="36" height="36" viewBox="0 0 36 36" fill="none" xmlns="http://www.w3.org/2000/svg">
<path d="M17.8955 0.131836C8.69444 0.131836 1.14719 7.21517 0.425537 16.233L9.80698 20.1021C10.5888 19.5664 11.551 19.239 12.6034 19.239C12.6936 19.239 12.7838 19.239 12.874 19.239L17.0535 13.1973V13.108C17.0535 9.47708 20.0304 6.50089 23.6687 6.50089C27.307 6.50089 30.2838 9.44731 30.2838 13.108C30.2838 16.739 27.307 19.7152 23.6687 19.7152C23.6085 19.7152 23.5785 19.7152 23.5183 19.7152L17.5647 23.9711C17.5647 24.0604 17.5647 24.1199 17.5647 24.2092C17.5647 26.9473 15.3396 29.1497 12.6034 29.1497C10.1979 29.1497 8.18327 27.4235 7.73224 25.1616L1.02691 22.3937C3.10165 29.7449 9.86712 35.1318 17.8955 35.1318C27.5776 35.1318 35.4255 27.3045 35.4255 17.6318C35.3955 7.95922 27.5475 0.131836 17.8955 0.131836ZM11.4006 26.6795L9.23568 25.7866C9.62657 26.5902 10.2881 27.2449 11.1601 27.6021C13.0544 28.3759 15.2494 27.483 16.0312 25.608C16.4221 24.6854 16.4221 23.6735 16.0312 22.7509C15.6403 21.8283 14.9487 21.114 14.0166 20.7271C13.1145 20.3402 12.1223 20.3699 11.2803 20.6973L13.5054 21.6199C14.8886 22.2152 15.5501 23.7926 14.9788 25.1914C14.4075 26.6199 12.8139 27.2747 11.4006 26.6795ZM28.0587 13.108C28.0587 10.6973 26.0742 8.70327 23.6687 8.70327C21.2331 8.70327 19.2786 10.6676 19.2786 13.108C19.2786 15.5187 21.2632 17.5128 23.6687 17.5128C26.1042 17.5128 28.0587 15.5485 28.0587 13.108ZM20.3611 13.108C20.3611 11.2926 21.8345 9.80446 23.6687 9.80446C25.5029 9.80446 26.9762 11.2926 26.9762 13.108C26.9762 14.9235 25.5029 16.4116 23.6687 16.4116C21.8345 16.4116 20.3611 14.9235 20.3611 13.108Z" fill="#ECEFF4"/>
</svg>
