<svg width="96" height="79" viewBox="0 0 96 79" fill="none" xmlns="http://www.w3.org/2000/svg">
<g id="VI">
<g id="I">
<path id="Rectangle" d="M67.5721 2.20456H87.7722V65.2286H67.5721V2.20456Z" fill="white" fill-opacity="0.5"/>
<path id="Tree" fill-rule="evenodd" clip-rule="evenodd" d="M85.7829 4.79333C85.4559 5.01735 85.2291 5.17272 85.1787 5.12231C85.1138 5.05747 85.3084 4.79811 85.5029 4.66843C85.049 4.73327 83.5577 5.77071 82.2609 7.52137C82.2825 7.28363 82.6499 6.54878 83.039 6.03006C82.7796 6.0949 82.3257 6.4191 82.0664 6.80814C81.7855 7.2295 80.7048 8.94784 80.4454 9.72592C80.5103 9.33688 80.7566 8.37725 80.9641 7.91041C80.3157 8.62364 78.5651 10.7633 78.5651 15.756C78.5651 20.2169 78.8028 23.018 78.9541 23.6664L78.5002 22.6938C78.5218 22.4561 78.5651 21.8509 78.5651 21.3322C78.5651 20.8135 78.5218 20.2083 78.5002 19.9706C78.457 20.0786 78.3576 20.3077 78.3057 20.3596C78.3109 20.22 78.321 20.0692 78.3316 19.9109C78.3654 19.4075 78.4044 18.8273 78.3057 18.2847C78.2192 18.436 77.9945 18.7645 77.787 18.8683C77.9383 18.6089 78.176 17.6363 78.2409 16.9231C78.3057 16.2099 78.2409 15.2373 78.0463 14.6537C77.9167 15.0428 77.6573 15.5615 77.2683 15.756C77.3979 15.4966 77.6443 14.6926 77.5925 13.5514C77.5406 12.4103 77.3547 11.5198 77.2683 11.2172C77.2683 11.9305 77.0219 13.5514 76.0363 14.3295C76.2957 13.8973 76.8144 12.5918 76.8144 10.8282C76.8144 9.06455 76.3389 8.0617 76.1012 7.78073C76.0579 8.14815 75.9066 9.05159 75.6473 9.72592C75.3879 10.4002 75.1502 10.8282 75.0637 10.9579C75.1718 10.5904 75.4009 9.59624 75.4528 8.5588C75.5046 7.52137 75.4311 6.65685 75.3879 6.35426C75.2366 6.52717 74.8951 6.95079 74.7395 7.26201C74.7395 7.11072 74.7784 6.71736 74.934 6.35426C75.1286 5.90039 75.1286 5.64103 75.1286 5.38167C75.1286 5.12231 74.4802 5.77071 73.8966 6.93782H73.5724C73.5508 6.59201 73.5465 5.74477 73.7021 5.12231C73.7957 4.748 73.8742 4.52375 73.9306 4.36293C73.9914 4.18946 74.0263 4.08979 74.0263 3.9552C74.0263 3.69584 73.3779 3.69584 72.7295 5.51135C72.2108 6.96375 72.8592 8.45074 73.2482 9.01268L72.5998 8.49397L72.4701 6.48394C72.3837 6.35426 72.1848 5.97819 72.0811 5.51135C71.9514 4.92779 71.8866 4.47392 71.8866 4.14972C71.8866 4.07939 71.8896 4.01516 71.8924 3.95637C71.9025 3.74417 71.9092 3.60287 71.7569 3.50132C71.5624 3.37164 71.303 3.631 71.1734 4.02004C71.0437 4.40908 70.7195 5.57619 71.2382 6.67846L70.5898 6.7433C70.5466 6.57039 70.4472 6.21161 70.3953 6.15974C70.3304 6.0949 70.2008 5.96522 70.2008 6.35426C70.2008 6.66549 70.244 6.95943 70.2656 7.0675L73.7669 18.6089C73.9182 18.7386 74.4024 19.0239 75.1286 19.1276C74.8692 19.2573 74.1171 19.4518 73.1834 19.1925L68.3853 24.5742L68.5149 25.1577H69.0336L69.7469 24.3148C69.5956 24.6174 69.293 25.3133 69.293 25.6764C69.293 26.0395 70.4169 25.698 70.9788 25.4819C71.1301 25.1577 71.4716 24.4704 71.6272 24.3148C71.7828 24.1592 71.3895 25.0713 71.1734 25.5468L73.5076 25.2874C73.594 25.0064 73.7929 24.4315 73.8966 24.3796C74.0004 24.3278 73.7669 25.0497 73.6373 25.4171L76.0363 25.2874C76.2092 25.0064 76.568 24.4315 76.6199 24.3796C76.6717 24.3278 76.8144 24.4013 76.8792 24.4445C76.836 24.639 76.7755 25.0799 76.8792 25.2874C76.983 25.4949 72.4269 31.512 70.1359 34.4946C70.2008 34.9485 70.2656 36.1026 70.0062 37.0882C70.3444 36.6559 71.0512 35.5061 71.1734 34.3649L71.5624 34.5594C71.584 34.862 71.6013 35.5969 71.4976 36.1156C71.6272 36.0508 71.9385 35.6488 72.1459 34.5594L72.5998 34.754C72.5782 34.862 72.5869 35.0782 72.7943 35.0782C73.0018 35.0782 73.2698 35.2078 73.3779 35.2727C72.7943 36.6775 71.6013 39.7596 71.4976 40.8489C71.3938 41.9382 71.4976 42.9454 71.5624 43.3128C71.9082 42.6428 72.8073 41.0823 73.1185 40.7192C72.7943 41.6918 71.9125 44.6485 71.7569 45.8415L68.3853 52.9739L71.4976 50.7045H71.7569C71.6272 51.9148 71.4457 54.6856 71.7569 56.0862C71.8866 55.5026 72.3405 54.0632 73.1185 52.9739C72.9889 54.0978 72.8073 56.6567 73.1185 57.9017C73.1618 57.6855 73.3001 57.2144 73.5076 57.0588C73.6589 57.6207 74.0782 58.9261 74.545 59.6523C74.4586 59.4578 74.3375 58.9521 74.545 58.4852C75.1718 59.2633 76.5032 60.9102 76.8144 61.2733C76.7495 61.1004 76.6588 60.7287 76.8144 60.6249C77.3331 61.1436 78.4224 62.2848 78.6299 62.6998C78.6515 62.4837 78.6429 61.9347 78.4354 61.4678C78.5434 61.5759 78.7725 61.8309 78.8244 61.9866C78.846 61.6407 78.7985 60.7676 78.4354 60.0414C78.6083 60.1062 78.98 60.2748 79.0838 60.4304C78.9325 59.8469 78.4743 58.4982 77.8518 57.772C78.3057 58.0962 79.3561 58.7965 79.9267 59.0039C79.7322 58.7878 79.1875 58.0313 79.0838 57.772C79.3215 57.8368 79.9915 58.2777 80.2509 58.4852C80.2293 58.161 80.0823 57.383 79.6673 56.8642C79.2524 56.3455 79.0189 55.6971 78.9541 55.4378C79.408 55.8484 80.3546 56.7735 80.5102 57.1884C80.1428 55.9565 78.9022 53.1295 77.9167 52.1958C78.8244 52.8226 80.7566 54.3096 81.2235 55.2432C81.0506 54.4003 80.4973 52.4033 79.6673 51.1584C78.6299 49.6022 77.5925 47.657 77.5276 47.3977C78.6083 48.6296 80.8863 51.314 81.3532 52.1958C80.9857 50.9638 80.0953 48.2795 79.4728 47.3977C79.8835 47.9164 80.8604 49.2261 81.4828 50.3154C80.9425 48.5648 79.5376 44.5188 78.2409 42.3402C78.9541 43.2047 80.6399 45.4525 81.6774 47.5273C81.2667 45.6038 80.2509 41.3935 79.4728 39.9411C79.9483 40.6327 81.1068 42.6385 81.9367 45.1283C81.807 43.9612 81.418 41.1731 80.8993 39.3576L81.4828 39.8114C81.6125 40.2221 81.9497 41.2249 82.2609 41.9511C82.1745 41.3676 82.0145 40.0708 82.0664 39.5521L82.5203 39.3576C82.9093 41.0434 83.7782 44.6614 84.1413 45.647C84.5951 46.879 85.6326 50.3803 85.6974 51.1584C85.7493 51.7808 87.34 56.7994 87.7723 57.8368V47.7867C87.7723 47.7867 87.4481 47.5273 86.9294 45.9064C86.4106 44.2854 86.4755 44.2854 86.4755 44.2854C86.4431 44.2205 86.4268 44.0909 86.4106 43.9612C86.3944 43.8315 86.3782 43.7018 86.3458 43.637C86.3364 43.6183 86.319 43.5874 86.295 43.545C86.1527 43.2934 85.7803 42.635 85.5029 41.6918C85.1787 40.5895 84.5951 38.7092 84.4655 38.4498C84.3358 38.1905 84.1413 37.5421 84.0764 37.2179C84.0245 36.9585 84.1845 35.8995 84.2709 35.4024L84.7248 38.9685C84.8517 37.1283 85.0532 33.2635 84.8672 32.2242C85.0438 33.1151 85.3732 34.9387 85.3732 35.5969C85.3732 36.4398 85.438 37.8014 85.5677 38.385C85.6974 38.9685 85.6974 40.1356 85.6974 40.4598C85.6974 40.784 85.7622 41.0434 85.8919 41.1082C85.9823 41.1534 86.0412 40.7574 86.0906 40.4255C86.112 40.2814 86.1316 40.1493 86.1513 40.0708C86.1789 39.9601 86.242 39.0586 86.3153 38.0109C86.4138 36.6031 86.5308 34.9312 86.6052 34.5594C86.8429 35.8346 87.3443 38.6573 87.4481 39.7466C87.5129 37.8663 87.7204 34.5984 87.7723 34.2352V21.5915C87.1239 21.6564 86.281 21.9157 85.9568 22.1103L85.9178 22.0765C85.5732 21.7771 84.82 21.1229 83.9467 20.7486C83.9889 20.7604 84.0403 20.7752 84.0996 20.7921C84.7995 20.9924 86.596 21.5065 87.2535 21.2673C87.9668 21.008 87.7723 20.4244 87.7723 20.4244C87.7649 20.4218 87.7321 20.414 87.6789 20.4013C87.2985 20.3106 85.8773 19.9718 85.3084 19.5167C86.0216 19.5167 87.3002 19.7465 87.7723 19.8409V18.9331C87.7723 18.9331 86.281 18.6089 87.7723 18.7386V12.5789C86.9942 13.0327 85.3732 14.524 84.2061 16.145C83.6442 16.2531 82.2739 16.573 81.2883 16.9879C81.7638 16.5773 83.0649 15.6912 84.4655 15.1724C84.5303 15.1508 84.66 15.0817 84.66 14.9779C84.66 14.8482 84.5951 14.7834 84.2709 14.8482C84.2401 14.8544 84.2016 14.8618 84.1564 14.8704C83.7263 14.9525 82.6871 15.1508 81.807 15.5615C82.2825 15.2805 83.3891 14.6537 84.0116 14.3944C84.507 14.188 85.1338 13.9815 85.5573 13.8421C85.799 13.7625 85.9745 13.7047 86.0216 13.6811C86.1513 13.6163 86.2161 13.4218 85.9568 13.4218C85.6974 13.4218 83.039 13.6811 81.2235 14.3295C82.1312 13.8756 84.4655 12.8382 87.3832 12.3195C87.3832 12.3195 87.5777 12.2547 87.5129 12.125C87.4481 11.9953 87.3184 11.9953 87.3184 11.9953C86.7781 11.9737 84.9323 11.9564 84.2061 12.0601C84.7908 11.6947 85.6604 11.5352 86.3565 11.4076C86.8954 11.3088 87.3302 11.229 87.4481 11.0875C87.7723 10.6985 85.2435 10.6985 84.4006 10.7633C84.7896 10.5256 86.0864 9.98527 87.4481 9.66108C86.7997 9.59624 85.7233 9.75185 85.3084 9.8556C85.6109 9.72592 86.8645 9.27204 87.7723 9.2072V8.75332C86.7348 8.75332 83.8949 9.29798 82.9093 9.66108C83.6442 9.2072 86.4755 7.89744 87.7723 7.58621V7.13234C87.4481 7.17556 85.6455 7.5084 85.1787 7.71589C85.2114 7.68489 85.2472 7.65059 85.2859 7.61342L85.2861 7.6132L85.2864 7.61298C85.7338 7.18367 86.5792 6.37241 87.7723 5.83555C87.4481 5.922 85.6715 6.56175 85.3084 6.87298C85.5677 6.57039 87.2536 5.29089 87.7723 5.18715V4.66843C87.6642 4.66843 86.3717 5.09638 86.2161 5.25199C86.3242 5.07908 87.6167 4.00707 87.7723 3.9552V3.76068C87.0589 3.91921 86.297 4.44112 85.7829 4.79333ZM79.5376 22.3048C79.9526 21.9417 80.6183 21.5483 80.8993 21.397C80.7955 21.7083 80.2509 23.0829 79.9915 23.7312C79.8878 23.6794 79.6025 23.6664 79.4728 23.6664L79.5376 22.3048ZM81.6774 22.4345C81.418 22.6938 80.8474 23.3292 80.6399 23.7961C80.8128 23.8177 81.1975 23.8998 81.3532 24.0554C81.699 23.8393 82.4943 23.3811 82.9093 23.2774C82.6716 23.0612 82.0923 22.5901 81.6774 22.4345ZM82.7148 21.6564C83.1298 21.9676 83.5793 22.6074 83.7522 22.8883C84.0116 22.7327 84.6816 22.5209 84.9842 22.4345C84.6211 22.2788 83.32 21.8509 82.7148 21.6564ZM81.7422 25.1577C81.7854 25.2226 81.8719 25.3911 81.8719 25.5468C82.4122 25.5468 83.5966 25.5857 84.0116 25.7413C83.7954 25.4819 83.3113 24.9502 83.1038 24.8984C82.8445 24.8335 82.1312 24.8335 81.7422 25.1577ZM77.787 23.8609C77.8389 23.7572 78.068 23.688 78.176 23.6664C77.8129 22.9402 77.4196 22.8883 77.2683 22.9532C77.5276 23.2125 77.7221 23.6664 77.787 23.8609ZM76.166 21.5267C76.0795 21.5267 75.8937 21.4748 75.8418 21.2673C75.9499 21.2457 76.166 21.2673 76.166 21.5267ZM81.1586 18.2199C82.0405 17.2862 83.3848 16.707 83.9467 16.5341C83.7392 16.7416 83.1687 17.5715 82.9093 17.9605C82.3906 17.9605 81.5261 18.1334 81.1586 18.2199ZM82.2041 18.7412L82.2039 18.7413C81.6965 19.0027 81.0109 19.3558 80.7696 19.5167C81.029 19.4518 81.7033 19.3222 82.0664 19.3222C82.1961 19.106 82.4814 18.6478 82.5851 18.5441C82.4832 18.5975 82.3511 18.6655 82.2041 18.7412ZM80.3806 20.8783C80.5362 20.7227 81.3099 20.2083 81.6774 19.9706C81.5477 20.1651 81.3099 20.5541 81.2235 20.7486C80.9641 20.7486 80.5535 20.8351 80.3806 20.8783Z" fill="white" fill-opacity="0.5"/>
<g id="Glow" filter="url(#filter0_bf_4_44)">
<path d="M67.5724 65.2285L67.5724 46.6844C67.5724 46.6844 78.2409 47.0735 81.6125 51.9364C84.9842 56.7994 79.7322 65.2285 79.7322 65.2285H67.5724Z" fill="white" fill-opacity="0.5"/>
</g>
<path id="Stroke" fill-rule="evenodd" clip-rule="evenodd" d="M89.9767 0H65.3676V67.4331H89.9767V0ZM88.8096 1.16711H66.5347V66.266H88.8096V1.16711Z" fill="white" fill-opacity="0.5"/>
<path id="Stroke_2" fill-rule="evenodd" clip-rule="evenodd" d="M66.5348 1.16711H88.8098V66.266H66.5348V1.16711ZM67.5722 2.20455V65.2285H87.7723V2.20455H67.5722Z" fill="white" fill-opacity="0.5"/>
</g>
<g id="V">
<path id="Vector" d="M42.2832 2.33423H62.4482L33.4001 62.3108L4.35205 2.33423H24.5171L33.4001 21.4619L42.2832 2.33423Z" fill="white" fill-opacity="0.5"/>
<path id="Tree_2" d="M41.2174 8.75332C40.7636 8.94784 40.5474 9.44495 40.5042 9.59624L40.3097 10.2446L44.5243 11.2821L51.1379 9.59624C51.7214 9.2072 52.2402 9.19194 53.0831 9.14236C53.9649 9.09049 54.7689 9.25043 55.0283 9.27204C54.0427 8.44209 52.7805 8.21299 52.305 8.23461C52.4087 8.07899 52.9534 7.60783 53.2128 7.39169C52.7589 7.32685 52.4347 7.32685 51.3324 7.52137C50.4506 7.67699 49.5817 8.14816 49.3224 8.29945C49.5817 7.91041 50.2712 7.48378 51.0731 7.00266C51.7214 6.61362 51.916 6.54878 52.1753 6.48394C50.4895 6.03006 49.3224 6.93782 48.7388 7.19718C48.1553 7.45653 47.6366 7.65105 47.1178 7.78073C47.2691 7.65105 47.7014 7.28795 48.2201 6.87298C48.7388 6.45801 49.3872 6.0949 49.6466 5.96523C49.4737 5.94361 48.9333 5.93929 48.1553 6.0949C47.3772 6.25052 46.5775 6.63523 46.2749 6.80814L47.053 5.64103C47.2605 5.3298 47.1395 5.33844 47.053 5.38167C46.7288 5.5978 45.847 6.27645 44.9133 7.26202C43.9796 8.24758 43.2275 9.57462 42.9681 10.115L42.5142 9.72592C42.6439 9.2072 42.8255 8.76629 43.033 8.29945C43.2404 7.8326 43.6165 7.2404 43.7462 7.0675C43.2923 7.13234 42.8629 7.55353 42.4494 8.10493C42.0604 8.62364 41.7578 9.22881 41.5416 9.66108H40.9581C40.9581 9.40172 41.131 8.94784 41.2174 8.75332Z" fill="white" fill-opacity="0.5"/>
<path id="Tree_3" d="M25.3966 5.96523C26.2395 6.54879 27.2986 8.10494 27.9253 8.81817H28.8331L29.7408 11.3469C28.055 12.0818 24.5277 13.5255 23.9053 13.4218C23.1272 13.2921 22.5437 13.8108 22.3491 13.6811C22.1935 13.5774 21.852 13.3785 21.7007 13.2921C21.7872 13.2056 22.0768 12.9679 22.5437 12.7085C23.0105 12.4492 23.5163 12.2114 23.7108 12.125C23.4514 11.9953 22.6733 12.1898 21.5062 12.3195C20.5725 12.4232 19.7772 12.5789 19.4962 12.6437C19.7556 12.3843 20.4688 11.9305 21.3765 11.5414C22.1027 11.2302 22.8462 10.6769 23.1272 10.4392C22.9975 10.4608 22.6863 10.517 22.4788 10.5688C22.2195 10.6337 21.6359 11.0227 20.7282 11.2172C20.002 11.3728 19.1288 11.7143 18.783 11.8656C19.0942 11.6063 19.2152 11.2821 19.2368 11.1524C18.7181 11.5155 18.1562 11.4334 17.9401 11.3469C18.355 11.0357 18.6317 10.5688 18.7181 10.3743C18.2426 10.6337 17.2009 11.1524 16.8378 11.1524C16.4747 11.1524 16.3407 11.0659 16.3191 11.0227C16.3839 10.9363 16.6173 10.6855 17.0323 10.3743C17.4473 10.0631 18.0697 9.76915 18.3291 9.66108C17.6807 9.66108 16.9675 9.98528 16.1894 10.2446C15.5669 10.4521 14.8061 11.0227 14.5036 11.2821C14.9358 11.3901 16.2802 11.7489 18.1994 12.3195C20.1187 12.8901 22.9327 14.2431 24.0998 14.8482C24.0998 17.9173 24.0479 24.0814 23.8404 24.1851C23.633 24.2889 23.4082 24.6174 23.3217 24.7687C23.7756 24.7038 23.9701 24.7687 24.035 24.7687L27.6011 28.4645C27.653 29.2426 27.666 30.9068 27.666 31.6417C27.7179 31.3823 27.947 31.0581 28.055 30.9284C28.1199 30.6691 27.9902 30.3449 27.9253 29.8262C27.8735 29.4112 27.774 28.7887 27.7308 28.5294C28.0766 28.3349 28.7423 27.9977 28.6386 28.2052C28.5089 28.4645 28.5737 30.0855 28.5737 29.891C28.5737 29.7354 29.1789 28.5294 29.4815 27.9458L35.6412 27.2974L34.6038 54.0761C34.1499 54.6597 33.8906 55.2433 33.5664 55.6971C33.4821 55.8151 33.3719 56.0213 33.2422 55.8917C33.1384 55.7879 33.1557 54.5516 33.1773 53.9465C32.9828 54.9839 31.8805 56.2807 31.7509 56.3455C31.6471 56.3974 31.5756 56.3298 31.6212 56.2158C31.9324 55.4378 32.0535 53.9681 32.0751 53.4277L31.7509 53.1035C31.7509 53.4277 31.6212 53.6223 31.4915 53.8168C31.3618 54.0113 31.297 53.8168 31.297 53.6871C31.297 53.5231 31.297 53.2332 31.3618 52.8442L31.6212 39.8115C31.7768 39.3965 32.8964 37.5637 33.4367 36.6992V36.1804C33.1773 36.5695 32.7883 37.0882 32.0102 38.3201C31.3878 39.3057 30.7999 40.2437 30.5838 40.5895C30.9728 38.0608 31.7509 36.1804 31.9454 35.7266C32.101 35.3635 32.1615 35.1862 32.1399 35.143C31.9454 35.3375 31.5564 35.8562 31.3618 36.1804C31.2062 36.4398 30.6918 37.0234 30.4541 37.2827C30.4541 37.1314 30.506 36.6084 30.7134 35.7266C30.9209 34.8447 31.4051 33.9759 31.6212 33.6517C31.1025 33.9759 30.7134 34.4946 30.3244 34.9485C30.5189 33.7814 32.0751 31.7497 32.7235 31.0581V30.7339C32.2047 31.2008 31.1673 32.3981 30.7134 32.9385C30.7134 32.2641 31.1457 30.7988 31.3618 30.1504C30.8431 30.9933 29.9354 33.3923 29.6112 34.0407C29.287 34.6891 27.5363 39.3576 26.9527 40.9786C26.4859 42.2754 25.8505 45.1499 25.5911 46.4251L23.3866 41.7566C23.5811 40.784 24.5537 38.8389 24.6185 38.6443C24.6704 38.4887 24.813 38.3634 24.8779 38.3201C25.1891 37.3865 26.3476 34.6459 26.8879 33.3923C26.8879 33.0033 26.4989 29.4371 26.434 29.0481C26.3822 28.7369 26.2395 28.6158 26.1747 28.5942C26.1098 30.28 26.025 32.9385 25.5263 34.2353C25.2669 34.9096 24.6401 35.424 24.3592 35.5969C24.7741 33.937 24.8779 31.9226 24.8779 31.123C24.7482 32.4198 24.0998 34.6243 23.8404 35.0782C23.633 35.4413 23.2353 35.532 23.0624 35.532C23.2353 34.6459 23.607 32.6402 23.7108 31.7065C23.8145 30.7728 23.754 30.1936 23.7108 30.0207C23.1921 33.0681 21.8304 36.375 20.9227 37.0234L20.6633 36.5695C20.7152 35.9989 21.3765 33.7382 21.7007 32.6791C21.4414 33.3016 20.512 34.6675 20.0798 35.2727L19.561 34.2353C19.976 33.5609 20.4256 31.9226 20.5985 31.1878C20.1316 32.4846 19.5827 33.3275 19.3665 33.5869L15.8652 26.7787C16.2283 26.6231 17.4862 26.4113 18.0697 26.3248C17.3954 26.3248 16.4055 26.4113 15.9949 26.4545V26.3248C17.0842 25.7024 19.9933 25.201 21.3117 25.028C21.5711 24.4445 22.4788 22.6938 22.803 22.3048C23.0624 21.9936 23.2569 21.5267 23.3217 21.3322C23.1272 21.5916 22.6733 22.1103 21.6359 23.0829C20.806 23.8609 19.6043 24.6606 19.1072 24.9632C19.0856 24.7903 19.1331 24.3148 19.4962 23.7961C19.8593 23.2774 21.2469 21.7645 21.8953 21.0728C19.4573 23.4589 18.0265 24.2284 17.6159 24.3148C19.3795 22.4993 20.8578 20.4028 21.3765 19.5815C21.1172 19.7977 20.391 20.4763 19.561 21.4619C18.7311 22.4474 17.3997 23.3422 16.8378 23.6664C16.9026 23.5367 17.0842 23.2255 17.2917 23.018C17.551 22.7587 18.783 21.008 19.2368 20.4893C19.5999 20.0743 20.9011 18.3712 21.5062 17.5715C21.1172 17.9605 18.5884 20.3596 18.0697 20.7486C17.6548 21.0599 15.9084 22.7803 15.0871 23.6016C15.2168 23.1693 15.6058 22.0195 16.1245 20.8783C16.6433 19.7371 17.3349 18.6305 17.6159 18.2199C17.0323 18.6089 16.2542 19.5167 15.8004 20.0354C15.4372 20.4504 14.309 21.5483 13.7903 22.0454L13.531 21.6564C14.1016 20.619 14.6981 19.4735 14.8926 18.998C14.6332 19.4648 13.7039 20.3596 13.2716 20.7486L12.6232 20.1002C13.0901 19.6853 13.5526 18.9331 13.7255 18.6089C13.518 18.7645 12.9042 19.2789 12.6232 19.5167L12.1693 18.8035C12.4287 18.6478 13.5742 17.3121 14.1145 16.6637C13.8552 16.7675 12.58 17.7444 11.9748 18.2199L11.4561 17.1825C11.8192 16.8712 11.9532 16.6205 11.9748 16.5341C11.8192 16.5859 11.5209 16.815 11.3913 16.9231L10.8725 15.8208C11.7544 15.3021 12.1045 14.8699 12.1693 14.7186C11.8062 15.0817 11.0671 15.475 10.7429 15.6263L8.40865 11.1524C9.80918 10.6855 12.8826 10.9579 14.2442 11.1524C14.9574 10.2446 15.6058 9.72592 16.3191 9.27205C16.8897 8.90895 17.551 8.25623 17.8104 7.97526C17.7888 7.95364 17.6548 7.92338 17.2917 7.97526C16.9286 8.02713 16.3623 8.38591 16.1245 8.55881C15.6058 8.88301 14.0497 10.2859 13.2068 10.4392C12.6362 10.5429 12.58 10.4392 12.6232 10.3743C12.58 10.3743 12.714 10.2057 13.5958 9.5314C14.4776 8.85707 14.6981 8.47236 14.6981 8.36429C13.5569 9.19424 12.3639 9.83399 11.91 10.0501C11.3913 10.3095 10.4835 10.6337 10.2242 10.7634C10.0167 10.8671 10.0512 10.6769 10.0945 10.5688C10.2674 10.3527 10.8466 9.76483 11.7803 9.14237C12.714 8.51991 13.3364 7.80235 13.531 7.52138C13.1635 7.78074 12.299 8.37726 11.7803 8.68849C11.1319 9.07753 10.1593 9.40173 9.57576 9.5314C9.10891 9.63515 8.30058 9.87721 7.95477 9.98528L7.76025 9.40173C8.27897 8.94785 9.25156 8.49397 9.77028 8.29945C10.1852 8.14384 11.0238 7.58622 11.3913 7.32686C11.4561 7.28363 11.5209 7.19718 11.2616 7.19718C10.9374 7.19718 9.96479 7.7159 9.57576 7.84558C9.18672 7.97526 8.92736 8.0401 8.53833 8.29945C8.2271 8.50694 7.6738 9.07753 7.43605 9.33689L6.98218 8.0401C7.1767 7.7159 8.53833 6.54879 9.70544 5.96523C10.6391 5.49839 11.9532 5.29522 12.4935 5.252C12.0397 4.86296 11.4615 4.9278 11.0671 4.9278C10.678 4.9278 9.89996 4.99264 9.70544 4.79812C9.5414 4.63409 9.44608 4.66844 9.3164 4.6036C10.9961 3.76375 12.1608 3.82507 13.3878 3.88966L13.4013 3.89037C14.6332 3.95521 15.6058 4.34424 15.9949 4.47392C16.3061 4.57767 16.5568 4.6036 16.6433 4.6036C16.4487 4.2794 15.8652 4.02005 15.0871 3.82553C14.4647 3.66991 13.5742 3.32842 13.2068 3.17713C14.5684 2.85294 15.6707 3.04745 16.5136 3.17713C17.1879 3.28088 18.7397 3.95521 19.4314 4.2794C18.9126 3.89037 18.6533 3.37165 18.3939 3.17713C18.1864 3.02152 17.6591 2.89616 17.4213 2.85294C17.7455 2.72326 18.5236 2.52874 19.9501 3.17713C21.0913 3.69585 21.7656 4.73328 21.9601 5.18716C21.9601 5.05748 21.8304 4.53876 21.5062 3.89037C21.2469 3.37165 20.5336 2.85294 20.2094 2.65842C21.1172 2.72326 22.5437 3.50133 23.6459 4.34424C24.5277 5.01857 25.1805 6.09491 25.3966 6.54879C25.3966 6.39317 25.3534 6.09491 25.3318 5.96523H25.3966Z" fill="white" fill-opacity="0.5"/>
<path id="Stroke_3" fill-rule="evenodd" clip-rule="evenodd" d="M66.1723 0L33.4001 67.6658L0.62793 0H26.0067L33.4001 15.9201L40.7935 0H66.1723ZM33.4001 18.691L25.2619 1.16711H2.48998L33.4001 64.9883L64.3103 1.16711H41.5383L33.4001 18.691Z" fill="white" fill-opacity="0.5"/>
<path id="Stroke_4" fill-rule="evenodd" clip-rule="evenodd" d="M64.3103 1.16711L33.4001 64.9883L2.48999 1.16711H25.2619L33.4001 18.691L41.5383 1.16711H64.3103ZM33.4001 21.4619L24.5171 2.33423H4.35204L33.4001 62.3108L62.4482 2.33423H42.2832L33.4001 21.4619Z" fill="white" fill-opacity="0.5"/>
</g>
</g>
<defs>
<filter id="filter0_bf_4_44" x="43.2204" y="22.3325" width="63.8734" height="67.248" filterUnits="userSpaceOnUse" color-interpolation-filters="sRGB">
<feFlood flood-opacity="0" result="BackgroundImageFix"/>
<feGaussianBlur in="BackgroundImageFix" stdDeviation="12.176"/>
<feComposite in2="SourceAlpha" operator="in" result="effect1_backgroundBlur_4_44"/>
<feBlend mode="normal" in="SourceGraphic" in2="effect1_backgroundBlur_4_44" result="shape"/>
<feGaussianBlur stdDeviation="6.39457" result="effect2_foregroundBlur_4_44"/>
</filter>
</defs>
</svg>
